Coordinates
version=1
nRows=21
nColumns=33
inDegrees=yes

Units are S.I. units (second, meters, Newtons, ...)
Angles are in degrees.

endheader
time	ground_thorax_rot_x	ground_thorax_rot_y	ground_thorax_rot_z	ground_thorax_tx	ground_thorax_ty	ground_thorax_tz	clav_prot_r	clav_elev_r	scapula_abduction_r	scapula_elevation_r	scapula_upward_rot_r	scapula_winging_r	shoulder_elv_r	plane_of_elev_r	axial_rot_r	elbow_flexion_r	pro_sup_r	wrist_flex_r	wrist_dev_r	clav_prot_l	clav_elev_l	scapula_abduction_l	scapula_elevation_l	scapula_upward_rot_l	scapula_winging_l	shoulder_elv_l	plane_of_elev_l	axial_rot_l	elbow_flexion_l	pro_sup_l	wrist_flex_l	wrist_dev_l
      9.95000000	     29.42750818	     30.06413008	     36.66620535	   -181.08697390	    814.40611127	      7.47087475	     13.42643946	     45.00000000	     45.00000000	     45.00000000	     45.00000000	  -2546.17578367	  -1601.91202069	    -90.00000000	   -100.65460692	    358.73835986	   -116.42887603	     19.73868959	     15.51887329	     11.86554862	    -45.00000000	    -41.30199252	     45.00000000	    -45.00000000	    819.51781637	  -2804.63772002	     21.52093745	    -53.64792061	   -349.60377201	      8.29599945	      7.37340570	    -20.01838942
      9.96000000	     29.67568231	     29.75716440	     36.15615212	   -183.92383814	    815.47631153	      7.34975563	     13.38056375	     45.00000000	     45.00000000	     45.00000000	     45.00000000	  -2546.03363193	  -1601.87849779	    -90.00000000	   -100.67169085	    358.74503326	   -116.73885818	     19.84131853	     15.59146656	     11.87297896	    -45.00000000	    -41.28962295	     45.00000000	    -45.00000000	    819.65865731	  -2804.50889472	     21.55535729	    -53.66992777	   -349.59154654	      7.84015098	      7.31449225	    -20.02714213
      9.97000000	     29.92508318	     29.42366287	     35.66361038	   -186.72887749	    816.51873298	      7.22416237	     13.33705036	     45.00000000	     45.00000000	     45.00000000	     45.00000000	  -2545.90553351	  -1601.83771874	    -90.00000000	   -100.69635450	    358.78885629	   -117.00803011	     19.95033766	     15.66310288	     11.88871214	    -45.00000000	    -41.23721680	     45.00000000	    -45.00000000	    819.83755165	  -2804.37365854	     21.58105604	    -53.76741060	   -349.52321714	      7.42849296	      7.26915982	    -20.04996443
      9.98000000	     30.11365626	     29.10090680	     35.24876401	   -189.49502933	    817.53121065	      7.09910919	     13.29694637	     45.00000000	     45.00000000	     45.00000000	     45.00000000	  -2545.81495599	  -1601.77854843	    -90.00000000	   -100.74004496	    358.83394436	   -117.25353453	     20.10168811	     15.74353179	     11.92253591	    -45.00000000	    -41.19342905	     45.00000000	    -45.00000000	    820.08951947	  -2804.16345719	     21.59275454	    -53.98536785	   -349.37043726	      7.08014103	      7.27574366	    -20.09662958
      9.99000000	     30.38945671	     28.75672114	     34.65704441	   -192.21338507	    818.51319566	      6.98012839	     13.26116799	     45.00000000	     45.00000000	     45.00000000	     45.00000000	  -2545.71556307	  -1601.75763252	    -90.00000000	   -100.74540839	    358.82942757	   -117.48813560	     20.22331458	     15.79292817	     11.88807803	    -45.00000000	    -41.17767032	     45.00000000	    -45.00000000	    820.14434090	  -2804.07387189	     21.60050687	    -53.95127758	   -349.43818751	      6.73089756	      7.20424876	    -20.08429420
     10.00000000	     30.62581045	     28.41669025	     34.14420702	   -194.87975132	    819.46736922	      6.87226310	     13.22573561	     45.00000000	     45.00000000	     45.00000000	     45.00000000	  -2545.61870787	  -1601.77380578	    -90.00000000	   -100.71358952	    358.82027054	   -117.71274321	     20.32158992	     15.82719449	     11.87983082	    -45.00000000	    -41.12711142	     45.00000000	    -45.00000000	    820.26678151	  -2803.95503845	     21.59507152	    -54.05371797	   -349.42559040	      6.41787685	      7.10760343	    -20.08840084
     10.01000000	     30.85005248	     28.07055541	     33.64384065	   -197.48911768	    820.39463061	      6.77835142	     13.19122223	     45.00000000	     45.00000000	     45.00000000	     45.00000000	  -2545.56024625	  -1601.82645431	    -90.00000000	   -100.64489825	    358.77932404	   -117.93568626	     20.38245909	     15.83476631	     11.88608655	    -45.00000000	    -41.02652290	     45.00000000	    -45.00000000	    820.38413709	  -2803.83229618	     21.60371539	    -54.14187783	   -349.46635018	      6.12822676	      6.98347340	    -20.07543211
     10.02000000	     31.10722983	     27.71767109	     33.01773706	   -200.03139683	    821.29363600	      6.69973701	     13.16360491	     45.00000000	     45.00000000	     45.00000000	     45.00000000	  -2545.48788853	  -1601.90264938	    -90.00000000	   -100.55115467	    358.65568836	   -118.17964560	     20.48367931	     15.83088186	     11.77156073	    -45.00000000	    -41.07408905	     45.00000000	    -45.00000000	    820.33437018	  -2803.78937722	     21.55088516	    -53.86273130	   -349.58177596	      5.79322901	      6.78056180	    -20.03452558
     10.03000000	     31.27205433	     27.40542003	     32.71559139	   -202.51442117	    822.16790310	      6.63504918	     13.13446949	     45.00000000	     45.00000000	     45.00000000	     45.00000000	  -2545.39746742	  -1601.93504886	    -90.00000000	   -100.50361902	    358.70551009	   -118.38485353	     20.63126102	     15.89572576	     11.86108908	    -45.00000000	    -40.98263156	     45.00000000	    -45.00000000	    820.71460840	  -2803.58388453	     21.50609950	    -54.85314751	   -349.26144668	      5.71794677	      6.83848130	    -20.12674603
     10.04000000	     31.54752888	     27.02986783	     32.06879714	   -204.92524642	    823.01483301	      6.58314138	     13.11649714	     45.00000000	     45.00000000	     45.00000000	     45.00000000	  -2545.35373268	  -1602.00226366	    -90.00000000	   -100.42053733	    358.59598196	   -118.59910521	     20.72092444	     15.87355023	     11.76964966	    -45.00000000	    -40.89283480	     45.00000000	    -45.00000000	    820.66493302	  -2803.52557340	     21.53185725	    -54.45411488	   -349.43715600	      5.49405084	      6.69793867	    -20.06797403
     10.05000000	     31.68019812	     26.73184270	     31.70703722	   -207.26737651	    823.83635129	      6.54116778	     13.09324071	     45.00000000	     45.00000000	     45.00000000	     45.00000000	  -2545.35894835	  -1602.03267654	    -90.00000000	   -100.37451714	    358.52103433	   -118.79916041	     20.84070887	     15.87047756	     11.77721202	    -45.00000000	    -40.81234450	     45.00000000	    -45.00000000	    820.86679003	  -2803.34833397	     21.49958591	    -54.92331039	   -349.36857682	      5.40820001	      6.58235408	    -20.07992210
     10.06000000	     31.96210678	     26.36956521	     31.11672848	   -209.54099084	    824.63501484	      6.50753419	     13.07546175	     45.00000000	     45.00000000	     45.00000000	     45.00000000	  -2545.24627194	  -1602.10281157	    -90.00000000	   -100.28888260	    358.50123690	   -118.96938781	     20.93554872	     15.85922590	     11.71656940	    -45.00000000	    -40.77984366	     45.00000000	    -45.00000000	    820.90607157	  -2803.32271986	     21.47326420	    -55.01767613	   -349.37835143	      5.31553562	      6.47349670	    -20.06609045
     10.07000000	     32.15127699	     26.04217221	     30.65566190	   -211.74454229	    825.41211996	      6.48112872	     13.06146986	     45.00000000	     45.00000000	     45.00000000	     45.00000000	  -2545.19478996	  -1602.14248780	    -90.00000000	   -100.23415574	    358.45891552	   -119.11568392	     21.06035440	     15.84535041	     11.68365429	    -45.00000000	    -40.72098980	     45.00000000	    -45.00000000	    821.02262341	  -2803.21635607	     21.44082950	    -55.23121645	   -349.32040580	      5.27965238	      6.37746082	    -20.07026597
     10.08000000	     32.35925930	     25.67777437	     30.14482583	   -213.88135438	    826.16983232	      6.46232315	     13.04865379	     45.00000000	     45.00000000	     45.00000000	     45.00000000	  -2545.12963427	  -1602.17767763	    -90.00000000	   -100.18354987	    358.39137793	   -119.23939413	     21.15938480	     15.80089182	     11.62542036	    -45.00000000	    -40.66425012	     45.00000000	    -45.00000000	    821.07614666	  -2803.14540388	     21.40767000	    -55.24663575	   -349.40093949	      5.26007825	      6.21051426	    -20.03491799
     10.09000000	     32.45538880	     25.39697466	     29.89411484	   -215.95337573	    826.90636789	      6.45161355	     13.03967602	     45.00000000	     45.00000000	     45.00000000	     45.00000000	  -2545.12392097	  -1602.16384072	    -90.00000000	   -100.18327943	    358.36571255	   -119.33953204	     21.35932628	     15.81063391	     11.62542682	    -45.00000000	    -40.64695482	     45.00000000	    -45.00000000	    821.30805427	  -2802.96451666	     21.31219035	    -55.79232821	   -349.19442044	      5.37051735	      6.22647976	    -20.08712687
     10.10000000	     32.70132572	     25.07357329	     29.33048507	   -217.96436228	    827.61790957	      6.45187817	     13.03258916	     45.00000000	     45.00000000	     45.00000000	     45.00000000	  -2545.04795176	  -1602.17789172	    -90.00000000	   -100.15482869	    358.33299885	   -119.41255064	     21.45242222	     15.75272595	     11.56031047	    -45.00000000	    -40.53859364	     45.00000000	    -45.00000000	    821.30703574	  -2802.92587275	     21.34125869	    -55.68915885	   -349.30560554	      5.45399501	      6.04085433	    -20.03851660
     10.11000000	     32.72572467	     24.80486103	     29.06962186	   -219.91922288	    828.30047386	      6.46513491	     13.03080530	     45.00000000	     45.00000000	     45.00000000	     45.00000000	  -2545.11562406	  -1602.13242554	    -90.00000000	   -100.18652469	    358.27751579	   -119.48272002	     21.64265369	     15.73098519	     11.54259677	    -45.00000000	    -40.50610916	     45.00000000	    -45.00000000	    821.52213336	  -2802.70899238	     21.26181142	    -56.13497238	   -349.14617586	      5.67311565	      5.96700426	    -20.07427975
     10.12000000	     33.07001469	     24.40551442	     28.40021524	   -221.81920027	    828.94739656	      6.49348119	     13.03040670	     45.00000000	     45.00000000	     45.00000000	     45.00000000	  -2544.93190541	  -1602.18446437	    -90.00000000	   -100.11864353	    358.29081733	   -119.52028322	     21.62599787	     15.61982776	     11.40341733	    -45.00000000	    -40.52401005	     45.00000000	    -45.00000000	    821.34656588	  -2802.84896410	     21.21773570	    -55.55631634	   -349.46252771	      5.86042058	      5.58866208	    -19.95719119
     10.13000000	     33.25212014	     24.10626134	     28.01564961	   -223.66938761	    829.55408840	      6.53739655	     13.03215767	     45.00000000	     45.00000000	     45.00000000	     45.00000000	  -2544.84232998	  -1602.17515317	    -90.00000000	   -100.11320137	    358.31131143	   -119.56395324	     21.71431012	     15.57235904	     11.40456266	    -45.00000000	    -40.40155235	     45.00000000	    -45.00000000	    821.52038675	  -2802.73638903	     21.24346138	    -56.07916914	   -349.36841554	      6.26484358	      5.41535627	    -19.96903241
     10.14000000	     33.42291226	     23.77605650	     27.56757274	   -225.48469987	    830.11701746	      6.59660035	     13.04023038	     45.00000000	     45.00000000	     45.00000000	     45.00000000	  -2544.86458367	  -1602.14284583	    -90.00000000	   -100.12970277	    358.31175780	   -119.63057929	     21.77586375	     15.49111485	     11.32605708	    -45.00000000	    -40.33989180	     45.00000000	    -45.00000000	    821.52807133	  -2802.69093935	     21.20492789	    -55.94690342	   -349.45140146	      6.68499744	      5.13897217	    -19.90747377
     10.15000000	     33.58041009	     23.51373243	     27.22528182	   -227.25683375	    830.63069516	      6.67024361	     13.04850926	     45.00000000	     45.00000000	     45.00000000	     45.00000000	  -2544.76528453	  -1602.09596927	    -90.00000000	   -100.16211493	    358.35116367	   -119.71754501	     21.88420143	     15.45865229	     11.31178820	    -45.00000000	    -40.25674600	     45.00000000	    -45.00000000	    821.70326668	  -2802.56923394	     21.18791717	    -56.49122929	   -349.29764213	      7.22457226	      5.00065791	    -19.92652054
